<svg xmlns:dc="http://purl.org/dc/elements/1.1/" xmlns:cc="http://creativecommons.org/ns#" xmlns:rdf="http://www.w3.org/1999/02/22-rdf-syntax-ns#" xmlns:svg="http://www.w3.org/2000/svg" xmlns="http://www.w3.org/2000/svg" xmlns:sodipodi="http://sodipodi.sourceforge.net/DTD/sodipodi-0.dtd" xmlns:inkscape="http://www.inkscape.org/namespaces/inkscape" viewBox="0 0 100 125" version="1.1" x="0px" y="0px"><g transform="translate(0,-952.36216)"><path style="opacity:1;fill:#000000;fill-opacity:1;stroke:none;stroke-width:1.24800003;stroke-miterlimit:4;stroke-dasharray:none;stroke-opacity:1" d="m 50,955.04494 a 24.449571,24.449571 0 0 0 -24.448977,24.44896 24.449571,24.449571 0 0 0 11.007544,20.40075 c -14.071748,3.52545 -24.075977,12.39505 -24.075942,22.80695 8.7e-5,24.042 1.410727,26.9778 37.517375,26.9778 36.738961,0 37.517285,-1.4603 37.517375,-26.9778 3.7e-5,-10.4103 -10.001468,-19.2774 -24.069826,-22.80394 A 24.449571,24.449571 0 0 0 74.448977,979.4939 24.449571,24.449571 0 0 0 50,955.04492 Z"/></g><text x="0" y="115" fill="#000000" font-size="5px" font-weight="bold" font-family="'Helvetica Neue', Helvetica, Arial-Unicode, Arial, Sans-serif">Created by Kyle Dodson</text><text x="0" y="120" fill="#000000" font-size="5px" font-weight="bold" font-family="'Helvetica Neue', Helvetica, Arial-Unicode, Arial, Sans-serif">from the Noun Project</text></svg>