<svg xmlns="http://www.w3.org/2000/svg" xmlns:xlink="http://www.w3.org/1999/xlink" xmlns:sketch="http://www.bohemiancoding.com/sketch/ns" viewBox="0 0 34 66.25" version="1.1" x="0px" y="0px"><title>66 - Iphone 3 (Solid)</title><desc>Created with Sketch.</desc><g stroke="none" stroke-width="1" fill="none" fill-rule="evenodd" sketch:type="MSPage"><g sketch:type="MSLayerGroup" fill="#000000"><path d="M25.865,0 L9.135,0 C5.029,0 1.633,3.06 1.086,7.017 C1.056,7.015 1.03,7 1,7 C0.448,7 0,7.447 0,8 L0,9 C0,9.553 0.448,10 1,10 L1,11 C0.448,11 0,11.447 0,12 L0,13 C0,13.553 0.448,14 1,14 L1,15 C0.448,15 0,15.447 0,16 L0,17 C0,17.553 0.448,18 1,18 L1,44.865 C1,49.351 4.649,53 9.135,53 L25.865,53 C30.351,53 34,49.351 34,44.865 L34,8.135 C34,3.65 30.351,0 25.865,0 L25.865,0 Z M32,44.865 C32,48.248 29.248,51 25.865,51 L9.135,51 C5.752,51 3,48.248 3,44.865 L3,8.135 C3,4.752 5.752,2 9.135,2 L25.865,2 C29.248,2 32,4.752 32,8.135 L32,44.865 L32,44.865 Z" sketch:type="MSShapeGroup"/><path d="M18,6 L21,6 C21.552,6 22,5.553 22,5 C22,4.447 21.552,4 21,4 L18,4 C17.448,4 17,4.447 17,5 C17,5.553 17.448,6 18,6" sketch:type="MSShapeGroup"/><path d="M14,6 C14.26,6 14.52,5.89 14.71,5.71 C14.89,5.52 15,5.26 15,5 C15,4.74 14.89,4.48 14.71,4.29 C14.33,3.92 13.66,3.92 13.29,4.29 C13.11,4.48 13,4.73 13,5 C13,5.26 13.11,5.52 13.29,5.71 C13.48,5.89 13.74,6 14,6" sketch:type="MSShapeGroup"/><path d="M17.5,45 C16.119,45 15,46.119 15,47.5 C15,48.881 16.119,50 17.5,50 C18.881,50 20,48.881 20,47.5 C20,46.119 18.881,45 17.5,45" sketch:type="MSShapeGroup"/><path d="M28.504,7 L6.496,7 C5.12,7 4,8.119 4,9.495 L4,41.505 C4,42.881 5.12,44 6.496,44 L28.504,44 C29.88,44 31,42.881 31,41.505 L31,9.495 C31,8.119 29.88,7 28.504,7 L28.504,7 Z M16.293,10.293 C16.684,9.902 17.316,9.902 17.707,10.293 C18.098,10.684 18.098,11.317 17.707,11.707 L14.707,14.707 C14.512,14.902 14.256,15 14,15 C13.744,15 13.488,14.902 13.293,14.707 C12.902,14.317 12.902,13.684 13.293,13.293 L16.293,10.293 L16.293,10.293 Z M7.293,14.293 L11.293,10.293 C11.684,9.902 12.316,9.902 12.707,10.293 C13.098,10.684 13.098,11.317 12.707,11.707 L8.707,15.707 C8.512,15.902 8.256,16 8,16 C7.744,16 7.488,15.902 7.293,15.707 C6.902,15.316 6.902,14.684 7.293,14.293 L7.293,14.293 Z M13,16 C13,16.26 12.89,16.52 12.71,16.71 C12.52,16.89 12.26,17 12,17 C11.74,17 11.48,16.89 11.29,16.71 C11.11,16.52 11,16.26 11,16 C11,15.74 11.11,15.48 11.29,15.29 C11.67,14.92 12.34,14.92 12.71,15.29 C12.89,15.48 13,15.74 13,16 L13,16 Z M7.293,19.293 L9.293,17.293 C9.684,16.902 10.316,16.902 10.707,17.293 C11.098,17.684 11.098,18.316 10.707,18.707 L8.707,20.707 C8.512,20.902 8.256,21 8,21 C7.744,21 7.488,20.902 7.293,20.707 C6.902,20.317 6.902,19.684 7.293,19.293 L7.293,19.293 Z M17.707,16.707 L8.707,25.707 C8.512,25.902 8.256,26 8,26 C7.744,26 7.488,25.902 7.293,25.707 C6.902,25.316 6.902,24.684 7.293,24.293 L16.293,15.293 C16.684,14.902 17.316,14.902 17.707,15.293 C18.098,15.684 18.098,16.316 17.707,16.707 L17.707,16.707 Z M19.71,14.71 C19.52,14.89 19.26,15 19,15 C18.74,15 18.48,14.89 18.29,14.71 C18.11,14.52 18,14.26 18,14 C18,13.74 18.11,13.48 18.29,13.29 C18.67,12.92 19.34,12.92 19.71,13.29 C19.89,13.48 20,13.74 20,14 C20,14.26 19.89,14.52 19.71,14.71 L19.71,14.71 Z M22.707,11.707 L21.707,12.707 C21.512,12.902 21.256,13 21,13 C20.744,13 20.488,12.902 20.293,12.707 C19.902,12.316 19.902,11.684 20.293,11.293 L21.293,10.293 C21.684,9.902 22.316,9.902 22.707,10.293 C23.098,10.684 23.098,11.317 22.707,11.707 L22.707,11.707 Z" sketch:type="MSShapeGroup"/></g></g><text x="0" y="68" fill="#000000" font-size="5px" font-weight="bold" font-family="'Helvetica Neue', Helvetica, Arial-Unicode, Arial, Sans-serif">Created by Ben Davis</text><text x="0" y="73" fill="#000000" font-size="5px" font-weight="bold" font-family="'Helvetica Neue', Helvetica, Arial-Unicode, Arial, Sans-serif">from the Noun Project</text></svg>